<mxfile host="app.diagrams.net" agent="Mozilla/5.0 (Windows NT 10.0; Win64; x64) AppleWebKit/537.36 (KHTML, like Gecko) Chrome/133.0.0.0 Safari/537.36 Edg/133.0.0.0" version="26.1.0" pages="2">
  <diagram name="ClassDiagram" id="gLZLLyH_hhTVmywuRG8O">
    <mxGraphModel grid="1" page="1" gridSize="10" guides="1" tooltips="1" connect="1" arrows="1" fold="1" pageScale="1" pageWidth="850" pageHeight="1100" math="0" shadow="0">
      <root>
        <mxCell id="0" />
        <mxCell id="1" parent="0" />
        <mxCell id="gSSbxNlLud2EmhHwHeiP-1" value="" style="edgeStyle=orthogonalEdgeStyle;rounded=0;orthogonalLoop=1;jettySize=auto;html=1;startArrow=diamond;startFill=0;" edge="1" parent="1" source="gSSbxNlLud2EmhHwHeiP-3" target="gSSbxNlLud2EmhHwHeiP-7">
          <mxGeometry relative="1" as="geometry" />
        </mxCell>
        <mxCell id="gSSbxNlLud2EmhHwHeiP-2" value="" style="edgeStyle=orthogonalEdgeStyle;rounded=0;orthogonalLoop=1;jettySize=auto;html=1;endArrow=block;endFill=0;" edge="1" parent="1" source="gSSbxNlLud2EmhHwHeiP-3" target="gSSbxNlLud2EmhHwHeiP-118">
          <mxGeometry relative="1" as="geometry" />
        </mxCell>
        <mxCell id="gSSbxNlLud2EmhHwHeiP-3" value="&lt;div&gt;CheckersController&lt;/div&gt;" style="swimlane;fontStyle=1;align=center;verticalAlign=top;childLayout=stackLayout;horizontal=1;startSize=26;horizontalStack=0;resizeParent=1;resizeParentMax=0;resizeLast=0;collapsible=1;marginBottom=0;whiteSpace=wrap;html=1;" vertex="1" parent="1">
          <mxGeometry x="-300" y="410" width="310" height="470" as="geometry" />
        </mxCell>
        <mxCell id="gSSbxNlLud2EmhHwHeiP-4" value="&lt;div&gt;&lt;span style=&quot;background-color: transparent; color: light-dark(rgb(0, 0, 0), rgb(255, 255, 255));&quot;&gt;# Board: CheckersBoard&lt;/span&gt;&lt;/div&gt;&lt;div&gt;# TurnP1: boolean&lt;/div&gt;&lt;div&gt;# ValidMoves: Map&amp;lt;(int, int), Set&amp;lt;Move&amp;gt;&amp;gt;&lt;/div&gt;&lt;div&gt;&lt;br&gt;&lt;/div&gt;&lt;div&gt;# CanCapture: bool&lt;/div&gt;&lt;div&gt;# HasMoved: bool&lt;/div&gt;&lt;div&gt;# CurrentPiece: (int, int)&lt;/div&gt;&lt;div&gt;# CurrentGameState: GameState&lt;/div&gt;" style="text;strokeColor=none;fillColor=none;align=left;verticalAlign=top;spacingLeft=4;spacingRight=4;overflow=hidden;rotatable=0;points=[[0,0.5],[1,0.5]];portConstraint=eastwest;whiteSpace=wrap;html=1;" vertex="1" parent="gSSbxNlLud2EmhHwHeiP-3">
          <mxGeometry y="26" width="310" height="134" as="geometry" />
        </mxCell>
        <mxCell id="gSSbxNlLud2EmhHwHeiP-5" value="" style="line;strokeWidth=1;fillColor=none;align=left;verticalAlign=middle;spacingTop=-1;spacingLeft=3;spacingRight=3;rotatable=0;labelPosition=right;points=[];portConstraint=eastwest;strokeColor=inherit;" vertex="1" parent="gSSbxNlLud2EmhHwHeiP-3">
          <mxGeometry y="160" width="310" height="8" as="geometry" />
        </mxCell>
        <mxCell id="gSSbxNlLud2EmhHwHeiP-6" value="&lt;div&gt;&lt;span style=&quot;background-color: transparent; color: light-dark(rgb(0, 0, 0), rgb(255, 255, 255));&quot;&gt;// Helper Methods.&lt;/span&gt;&lt;/div&gt;&lt;div&gt;# AddPieceMoves(xCoord: int, yCoord: int): void&lt;/div&gt;&lt;div&gt;&lt;br&gt;&lt;/div&gt;&lt;div&gt;// Internal State Methods.&lt;/div&gt;&lt;div&gt;# StartTurn(): void&lt;/div&gt;&lt;div&gt;# UpdateValidMoves(): void&lt;/div&gt;&lt;div&gt;# ProcessMove(CheckersMove): void&lt;/div&gt;&lt;div&gt;# EndTurn(): void&lt;/div&gt;&lt;div&gt;# UpdateGameState(): void&lt;/div&gt;&lt;div&gt;&lt;br&gt;&lt;/div&gt;&lt;div&gt;&lt;br&gt;&lt;/div&gt;&lt;div&gt;// User Interfacing Methods:&lt;/div&gt;&lt;div&gt;+ GetHints(): Map&amp;lt;(int, int), CheckersHighlightType&amp;gt;&lt;/div&gt;&lt;div&gt;+ GetPieces(): Map&amp;lt;(int, int), CheckersPiece&amp;gt;&lt;/div&gt;&lt;div&gt;&lt;br&gt;&lt;/div&gt;&lt;div&gt;&lt;div&gt;// Load/Save methods.&lt;/div&gt;&lt;div&gt;+ GameController(BoardWidth: int, BoardHeight: int)&lt;/div&gt;&lt;div&gt;+ GameController(Data: CheckersGameData)&lt;/div&gt;&lt;div&gt;+ Load(Data: CheckersGameData)&lt;/div&gt;&lt;div&gt;+ SaveGame(): CheckersGameData&lt;/div&gt;&lt;/div&gt;" style="text;strokeColor=none;fillColor=none;align=left;verticalAlign=top;spacingLeft=4;spacingRight=4;overflow=hidden;rotatable=0;points=[[0,0.5],[1,0.5]];portConstraint=eastwest;whiteSpace=wrap;html=1;" vertex="1" parent="gSSbxNlLud2EmhHwHeiP-3">
          <mxGeometry y="168" width="310" height="302" as="geometry" />
        </mxCell>
        <mxCell id="gSSbxNlLud2EmhHwHeiP-7" value="CheckersMove" style="swimlane;fontStyle=1;align=center;verticalAlign=top;childLayout=stackLayout;horizontal=1;startSize=26;horizontalStack=0;resizeParent=1;resizeParentMax=0;resizeLast=0;collapsible=1;marginBottom=0;whiteSpace=wrap;html=1;" vertex="1" parent="1">
          <mxGeometry x="610" y="601" width="160" height="88" as="geometry" />
        </mxCell>
        <mxCell id="gSSbxNlLud2EmhHwHeiP-8" value="+ StartCord: (int, int)&lt;div&gt;+ TargetCord: (int, int)&lt;/div&gt;&lt;div&gt;+ Capture: (int, int)&lt;/div&gt;" style="text;strokeColor=none;fillColor=none;align=left;verticalAlign=top;spacingLeft=4;spacingRight=4;overflow=hidden;rotatable=0;points=[[0,0.5],[1,0.5]];portConstraint=eastwest;whiteSpace=wrap;html=1;" vertex="1" parent="gSSbxNlLud2EmhHwHeiP-7">
          <mxGeometry y="26" width="160" height="54" as="geometry" />
        </mxCell>
        <mxCell id="gSSbxNlLud2EmhHwHeiP-9" value="" style="line;strokeWidth=1;fillColor=none;align=left;verticalAlign=middle;spacingTop=-1;spacingLeft=3;spacingRight=3;rotatable=0;labelPosition=right;points=[];portConstraint=eastwest;strokeColor=inherit;" vertex="1" parent="gSSbxNlLud2EmhHwHeiP-7">
          <mxGeometry y="80" width="160" height="8" as="geometry" />
        </mxCell>
        <mxCell id="gSSbxNlLud2EmhHwHeiP-10" value="Describes the movement of a Piece" style="text;html=1;align=center;verticalAlign=middle;whiteSpace=wrap;rounded=0;" vertex="1" parent="1">
          <mxGeometry x="590" y="689" width="200" height="30" as="geometry" />
        </mxCell>
        <mxCell id="gSSbxNlLud2EmhHwHeiP-11" value="&lt;b&gt;&amp;lt;&amp;lt;enummeration&amp;gt;&amp;gt;&lt;/b&gt;&lt;div&gt;&lt;b&gt;CheckersHighlightType&lt;/b&gt;&lt;/div&gt;" style="swimlane;fontStyle=0;childLayout=stackLayout;horizontal=1;startSize=40;fillColor=none;horizontalStack=0;resizeParent=1;resizeParentMax=0;resizeLast=0;collapsible=1;marginBottom=0;whiteSpace=wrap;html=1;" vertex="1" parent="1">
          <mxGeometry x="-540" y="654" width="160" height="110" as="geometry" />
        </mxCell>
        <mxCell id="gSSbxNlLud2EmhHwHeiP-12" value="+ Piece&lt;div&gt;+ SelectedPiece&lt;br&gt;&lt;div&gt;+ Capture&lt;br&gt;&lt;div&gt;+ Tile&lt;/div&gt;&lt;/div&gt;&lt;/div&gt;" style="text;strokeColor=none;fillColor=none;align=left;verticalAlign=top;spacingLeft=4;spacingRight=4;overflow=hidden;rotatable=0;points=[[0,0.5],[1,0.5]];portConstraint=eastwest;whiteSpace=wrap;html=1;" vertex="1" parent="gSSbxNlLud2EmhHwHeiP-11">
          <mxGeometry y="40" width="160" height="70" as="geometry" />
        </mxCell>
        <mxCell id="gSSbxNlLud2EmhHwHeiP-13" value="" style="whiteSpace=wrap;html=1;aspect=fixed;fillColor=#dae8fc;strokeColor=#6c8ebf;" vertex="1" parent="1">
          <mxGeometry x="980" y="115" width="80" height="80" as="geometry" />
        </mxCell>
        <mxCell id="gSSbxNlLud2EmhHwHeiP-14" value="" style="whiteSpace=wrap;html=1;aspect=fixed;" vertex="1" parent="1">
          <mxGeometry x="1060" y="115" width="80" height="80" as="geometry" />
        </mxCell>
        <mxCell id="gSSbxNlLud2EmhHwHeiP-15" value="" style="whiteSpace=wrap;html=1;aspect=fixed;fillColor=#dae8fc;strokeColor=#6c8ebf;" vertex="1" parent="1">
          <mxGeometry x="1140" y="115" width="80" height="80" as="geometry" />
        </mxCell>
        <mxCell id="gSSbxNlLud2EmhHwHeiP-16" value="" style="whiteSpace=wrap;html=1;aspect=fixed;" vertex="1" parent="1">
          <mxGeometry x="1220" y="115" width="80" height="80" as="geometry" />
        </mxCell>
        <mxCell id="gSSbxNlLud2EmhHwHeiP-17" value="" style="whiteSpace=wrap;html=1;aspect=fixed;fillColor=#dae8fc;strokeColor=#6c8ebf;" vertex="1" parent="1">
          <mxGeometry x="1300" y="115" width="80" height="80" as="geometry" />
        </mxCell>
        <mxCell id="gSSbxNlLud2EmhHwHeiP-18" value="" style="whiteSpace=wrap;html=1;aspect=fixed;" vertex="1" parent="1">
          <mxGeometry x="1380" y="115" width="80" height="80" as="geometry" />
        </mxCell>
        <mxCell id="gSSbxNlLud2EmhHwHeiP-19" value="" style="whiteSpace=wrap;html=1;aspect=fixed;fillColor=#dae8fc;strokeColor=#6c8ebf;" vertex="1" parent="1">
          <mxGeometry x="1460" y="115" width="80" height="80" as="geometry" />
        </mxCell>
        <mxCell id="gSSbxNlLud2EmhHwHeiP-20" value="" style="whiteSpace=wrap;html=1;aspect=fixed;" vertex="1" parent="1">
          <mxGeometry x="1540" y="115" width="80" height="80" as="geometry" />
        </mxCell>
        <mxCell id="gSSbxNlLud2EmhHwHeiP-21" value="" style="whiteSpace=wrap;html=1;aspect=fixed;" vertex="1" parent="1">
          <mxGeometry x="980" y="190" width="80" height="80" as="geometry" />
        </mxCell>
        <mxCell id="gSSbxNlLud2EmhHwHeiP-22" value="" style="whiteSpace=wrap;html=1;aspect=fixed;fillColor=#dae8fc;strokeColor=#6c8ebf;" vertex="1" parent="1">
          <mxGeometry x="1060" y="190" width="80" height="80" as="geometry" />
        </mxCell>
        <mxCell id="gSSbxNlLud2EmhHwHeiP-23" value="" style="whiteSpace=wrap;html=1;aspect=fixed;" vertex="1" parent="1">
          <mxGeometry x="1140" y="190" width="80" height="80" as="geometry" />
        </mxCell>
        <mxCell id="gSSbxNlLud2EmhHwHeiP-24" value="" style="whiteSpace=wrap;html=1;aspect=fixed;fillColor=#dae8fc;strokeColor=#6c8ebf;" vertex="1" parent="1">
          <mxGeometry x="1220" y="190" width="80" height="80" as="geometry" />
        </mxCell>
        <mxCell id="gSSbxNlLud2EmhHwHeiP-25" value="" style="whiteSpace=wrap;html=1;aspect=fixed;" vertex="1" parent="1">
          <mxGeometry x="1300" y="190" width="80" height="80" as="geometry" />
        </mxCell>
        <mxCell id="gSSbxNlLud2EmhHwHeiP-26" value="" style="whiteSpace=wrap;html=1;aspect=fixed;fillColor=#dae8fc;strokeColor=#6c8ebf;" vertex="1" parent="1">
          <mxGeometry x="1380" y="190" width="80" height="80" as="geometry" />
        </mxCell>
        <mxCell id="gSSbxNlLud2EmhHwHeiP-27" value="" style="whiteSpace=wrap;html=1;aspect=fixed;" vertex="1" parent="1">
          <mxGeometry x="1460" y="190" width="80" height="80" as="geometry" />
        </mxCell>
        <mxCell id="gSSbxNlLud2EmhHwHeiP-28" value="" style="whiteSpace=wrap;html=1;aspect=fixed;fillColor=#dae8fc;strokeColor=#6c8ebf;" vertex="1" parent="1">
          <mxGeometry x="1540" y="190" width="80" height="80" as="geometry" />
        </mxCell>
        <mxCell id="gSSbxNlLud2EmhHwHeiP-29" value="" style="whiteSpace=wrap;html=1;aspect=fixed;fillColor=#dae8fc;strokeColor=#6c8ebf;" vertex="1" parent="1">
          <mxGeometry x="980" y="270" width="80" height="80" as="geometry" />
        </mxCell>
        <mxCell id="gSSbxNlLud2EmhHwHeiP-30" value="" style="whiteSpace=wrap;html=1;aspect=fixed;" vertex="1" parent="1">
          <mxGeometry x="1060" y="270" width="80" height="80" as="geometry" />
        </mxCell>
        <mxCell id="gSSbxNlLud2EmhHwHeiP-31" value="" style="whiteSpace=wrap;html=1;aspect=fixed;fillColor=#dae8fc;strokeColor=#6c8ebf;" vertex="1" parent="1">
          <mxGeometry x="1140" y="270" width="80" height="80" as="geometry" />
        </mxCell>
        <mxCell id="gSSbxNlLud2EmhHwHeiP-32" value="" style="whiteSpace=wrap;html=1;aspect=fixed;" vertex="1" parent="1">
          <mxGeometry x="1220" y="270" width="80" height="80" as="geometry" />
        </mxCell>
        <mxCell id="gSSbxNlLud2EmhHwHeiP-33" value="" style="whiteSpace=wrap;html=1;aspect=fixed;fillColor=#dae8fc;strokeColor=#6c8ebf;" vertex="1" parent="1">
          <mxGeometry x="1300" y="270" width="80" height="80" as="geometry" />
        </mxCell>
        <mxCell id="gSSbxNlLud2EmhHwHeiP-34" value="" style="whiteSpace=wrap;html=1;aspect=fixed;" vertex="1" parent="1">
          <mxGeometry x="1380" y="270" width="80" height="80" as="geometry" />
        </mxCell>
        <mxCell id="gSSbxNlLud2EmhHwHeiP-35" value="" style="whiteSpace=wrap;html=1;aspect=fixed;fillColor=#dae8fc;strokeColor=#6c8ebf;" vertex="1" parent="1">
          <mxGeometry x="1460" y="270" width="80" height="80" as="geometry" />
        </mxCell>
        <mxCell id="gSSbxNlLud2EmhHwHeiP-36" value="" style="whiteSpace=wrap;html=1;aspect=fixed;" vertex="1" parent="1">
          <mxGeometry x="1540" y="270" width="80" height="80" as="geometry" />
        </mxCell>
        <mxCell id="gSSbxNlLud2EmhHwHeiP-37" value="" style="whiteSpace=wrap;html=1;aspect=fixed;" vertex="1" parent="1">
          <mxGeometry x="980" y="350" width="80" height="80" as="geometry" />
        </mxCell>
        <mxCell id="gSSbxNlLud2EmhHwHeiP-38" value="" style="whiteSpace=wrap;html=1;aspect=fixed;fillColor=#dae8fc;strokeColor=#6c8ebf;" vertex="1" parent="1">
          <mxGeometry x="1060" y="350" width="80" height="80" as="geometry" />
        </mxCell>
        <mxCell id="gSSbxNlLud2EmhHwHeiP-39" value="" style="whiteSpace=wrap;html=1;aspect=fixed;" vertex="1" parent="1">
          <mxGeometry x="1140" y="350" width="80" height="80" as="geometry" />
        </mxCell>
        <mxCell id="gSSbxNlLud2EmhHwHeiP-40" value="" style="whiteSpace=wrap;html=1;aspect=fixed;fillColor=#dae8fc;strokeColor=#6c8ebf;" vertex="1" parent="1">
          <mxGeometry x="1220" y="350" width="80" height="80" as="geometry" />
        </mxCell>
        <mxCell id="gSSbxNlLud2EmhHwHeiP-41" value="" style="whiteSpace=wrap;html=1;aspect=fixed;" vertex="1" parent="1">
          <mxGeometry x="1300" y="350" width="80" height="80" as="geometry" />
        </mxCell>
        <mxCell id="gSSbxNlLud2EmhHwHeiP-42" value="" style="whiteSpace=wrap;html=1;aspect=fixed;fillColor=#dae8fc;strokeColor=#6c8ebf;" vertex="1" parent="1">
          <mxGeometry x="1380" y="350" width="80" height="80" as="geometry" />
        </mxCell>
        <mxCell id="gSSbxNlLud2EmhHwHeiP-43" value="" style="whiteSpace=wrap;html=1;aspect=fixed;" vertex="1" parent="1">
          <mxGeometry x="1460" y="350" width="80" height="80" as="geometry" />
        </mxCell>
        <mxCell id="gSSbxNlLud2EmhHwHeiP-44" value="" style="whiteSpace=wrap;html=1;aspect=fixed;fillColor=#dae8fc;strokeColor=#6c8ebf;" vertex="1" parent="1">
          <mxGeometry x="1540" y="350" width="80" height="80" as="geometry" />
        </mxCell>
        <mxCell id="gSSbxNlLud2EmhHwHeiP-45" value="" style="whiteSpace=wrap;html=1;aspect=fixed;fillColor=#dae8fc;strokeColor=#6c8ebf;" vertex="1" parent="1">
          <mxGeometry x="980" y="430" width="80" height="80" as="geometry" />
        </mxCell>
        <mxCell id="gSSbxNlLud2EmhHwHeiP-46" value="" style="whiteSpace=wrap;html=1;aspect=fixed;" vertex="1" parent="1">
          <mxGeometry x="1060" y="430" width="80" height="80" as="geometry" />
        </mxCell>
        <mxCell id="gSSbxNlLud2EmhHwHeiP-47" value="" style="whiteSpace=wrap;html=1;aspect=fixed;fillColor=#dae8fc;strokeColor=#6c8ebf;" vertex="1" parent="1">
          <mxGeometry x="1140" y="430" width="80" height="80" as="geometry" />
        </mxCell>
        <mxCell id="gSSbxNlLud2EmhHwHeiP-48" value="" style="whiteSpace=wrap;html=1;aspect=fixed;" vertex="1" parent="1">
          <mxGeometry x="1220" y="430" width="80" height="80" as="geometry" />
        </mxCell>
        <mxCell id="gSSbxNlLud2EmhHwHeiP-49" value="" style="whiteSpace=wrap;html=1;aspect=fixed;fillColor=#dae8fc;strokeColor=#6c8ebf;" vertex="1" parent="1">
          <mxGeometry x="1300" y="430" width="80" height="80" as="geometry" />
        </mxCell>
        <mxCell id="gSSbxNlLud2EmhHwHeiP-50" value="" style="whiteSpace=wrap;html=1;aspect=fixed;" vertex="1" parent="1">
          <mxGeometry x="1380" y="430" width="80" height="80" as="geometry" />
        </mxCell>
        <mxCell id="gSSbxNlLud2EmhHwHeiP-51" value="" style="whiteSpace=wrap;html=1;aspect=fixed;fillColor=#dae8fc;strokeColor=#6c8ebf;" vertex="1" parent="1">
          <mxGeometry x="1460" y="430" width="80" height="80" as="geometry" />
        </mxCell>
        <mxCell id="gSSbxNlLud2EmhHwHeiP-52" value="" style="whiteSpace=wrap;html=1;aspect=fixed;" vertex="1" parent="1">
          <mxGeometry x="1540" y="430" width="80" height="80" as="geometry" />
        </mxCell>
        <mxCell id="gSSbxNlLud2EmhHwHeiP-53" value="" style="whiteSpace=wrap;html=1;aspect=fixed;" vertex="1" parent="1">
          <mxGeometry x="980" y="505" width="80" height="80" as="geometry" />
        </mxCell>
        <mxCell id="gSSbxNlLud2EmhHwHeiP-54" value="" style="whiteSpace=wrap;html=1;aspect=fixed;fillColor=#dae8fc;strokeColor=#6c8ebf;" vertex="1" parent="1">
          <mxGeometry x="1060" y="505" width="80" height="80" as="geometry" />
        </mxCell>
        <mxCell id="gSSbxNlLud2EmhHwHeiP-55" value="" style="whiteSpace=wrap;html=1;aspect=fixed;" vertex="1" parent="1">
          <mxGeometry x="1140" y="505" width="80" height="80" as="geometry" />
        </mxCell>
        <mxCell id="gSSbxNlLud2EmhHwHeiP-56" value="" style="whiteSpace=wrap;html=1;aspect=fixed;fillColor=#dae8fc;strokeColor=#6c8ebf;" vertex="1" parent="1">
          <mxGeometry x="1220" y="505" width="80" height="80" as="geometry" />
        </mxCell>
        <mxCell id="gSSbxNlLud2EmhHwHeiP-57" value="" style="whiteSpace=wrap;html=1;aspect=fixed;" vertex="1" parent="1">
          <mxGeometry x="1300" y="505" width="80" height="80" as="geometry" />
        </mxCell>
        <mxCell id="gSSbxNlLud2EmhHwHeiP-58" value="" style="whiteSpace=wrap;html=1;aspect=fixed;fillColor=#dae8fc;strokeColor=#6c8ebf;" vertex="1" parent="1">
          <mxGeometry x="1380" y="505" width="80" height="80" as="geometry" />
        </mxCell>
        <mxCell id="gSSbxNlLud2EmhHwHeiP-59" value="" style="whiteSpace=wrap;html=1;aspect=fixed;" vertex="1" parent="1">
          <mxGeometry x="1460" y="505" width="80" height="80" as="geometry" />
        </mxCell>
        <mxCell id="gSSbxNlLud2EmhHwHeiP-60" value="" style="whiteSpace=wrap;html=1;aspect=fixed;fillColor=#dae8fc;strokeColor=#6c8ebf;" vertex="1" parent="1">
          <mxGeometry x="1540" y="505" width="80" height="80" as="geometry" />
        </mxCell>
        <mxCell id="gSSbxNlLud2EmhHwHeiP-61" value="" style="whiteSpace=wrap;html=1;aspect=fixed;fillColor=#dae8fc;strokeColor=#6c8ebf;" vertex="1" parent="1">
          <mxGeometry x="980" y="585" width="80" height="80" as="geometry" />
        </mxCell>
        <mxCell id="gSSbxNlLud2EmhHwHeiP-62" value="" style="whiteSpace=wrap;html=1;aspect=fixed;" vertex="1" parent="1">
          <mxGeometry x="1060" y="585" width="80" height="80" as="geometry" />
        </mxCell>
        <mxCell id="gSSbxNlLud2EmhHwHeiP-63" value="" style="whiteSpace=wrap;html=1;aspect=fixed;fillColor=#dae8fc;strokeColor=#6c8ebf;" vertex="1" parent="1">
          <mxGeometry x="1140" y="585" width="80" height="80" as="geometry" />
        </mxCell>
        <mxCell id="gSSbxNlLud2EmhHwHeiP-64" value="" style="whiteSpace=wrap;html=1;aspect=fixed;" vertex="1" parent="1">
          <mxGeometry x="1220" y="585" width="80" height="80" as="geometry" />
        </mxCell>
        <mxCell id="gSSbxNlLud2EmhHwHeiP-65" value="" style="whiteSpace=wrap;html=1;aspect=fixed;fillColor=#dae8fc;strokeColor=#6c8ebf;" vertex="1" parent="1">
          <mxGeometry x="1300" y="585" width="80" height="80" as="geometry" />
        </mxCell>
        <mxCell id="gSSbxNlLud2EmhHwHeiP-66" value="" style="whiteSpace=wrap;html=1;aspect=fixed;" vertex="1" parent="1">
          <mxGeometry x="1380" y="585" width="80" height="80" as="geometry" />
        </mxCell>
        <mxCell id="gSSbxNlLud2EmhHwHeiP-67" value="" style="whiteSpace=wrap;html=1;aspect=fixed;fillColor=#dae8fc;strokeColor=#6c8ebf;" vertex="1" parent="1">
          <mxGeometry x="1460" y="585" width="80" height="80" as="geometry" />
        </mxCell>
        <mxCell id="gSSbxNlLud2EmhHwHeiP-68" value="" style="whiteSpace=wrap;html=1;aspect=fixed;" vertex="1" parent="1">
          <mxGeometry x="1540" y="585" width="80" height="80" as="geometry" />
        </mxCell>
        <mxCell id="gSSbxNlLud2EmhHwHeiP-69" value="" style="whiteSpace=wrap;html=1;aspect=fixed;" vertex="1" parent="1">
          <mxGeometry x="980" y="665" width="80" height="80" as="geometry" />
        </mxCell>
        <mxCell id="gSSbxNlLud2EmhHwHeiP-70" value="" style="whiteSpace=wrap;html=1;aspect=fixed;fillColor=#dae8fc;strokeColor=#6c8ebf;" vertex="1" parent="1">
          <mxGeometry x="1060" y="665" width="80" height="80" as="geometry" />
        </mxCell>
        <mxCell id="gSSbxNlLud2EmhHwHeiP-71" value="" style="whiteSpace=wrap;html=1;aspect=fixed;" vertex="1" parent="1">
          <mxGeometry x="1140" y="665" width="80" height="80" as="geometry" />
        </mxCell>
        <mxCell id="gSSbxNlLud2EmhHwHeiP-72" value="" style="whiteSpace=wrap;html=1;aspect=fixed;fillColor=#dae8fc;strokeColor=#6c8ebf;" vertex="1" parent="1">
          <mxGeometry x="1220" y="665" width="80" height="80" as="geometry" />
        </mxCell>
        <mxCell id="gSSbxNlLud2EmhHwHeiP-73" value="" style="whiteSpace=wrap;html=1;aspect=fixed;" vertex="1" parent="1">
          <mxGeometry x="1300" y="665" width="80" height="80" as="geometry" />
        </mxCell>
        <mxCell id="gSSbxNlLud2EmhHwHeiP-74" value="" style="whiteSpace=wrap;html=1;aspect=fixed;fillColor=#dae8fc;strokeColor=#6c8ebf;" vertex="1" parent="1">
          <mxGeometry x="1380" y="665" width="80" height="80" as="geometry" />
        </mxCell>
        <mxCell id="gSSbxNlLud2EmhHwHeiP-75" value="" style="whiteSpace=wrap;html=1;aspect=fixed;" vertex="1" parent="1">
          <mxGeometry x="1460" y="665" width="80" height="80" as="geometry" />
        </mxCell>
        <mxCell id="gSSbxNlLud2EmhHwHeiP-76" value="" style="whiteSpace=wrap;html=1;aspect=fixed;fillColor=#dae8fc;strokeColor=#6c8ebf;" vertex="1" parent="1">
          <mxGeometry x="1540" y="665" width="80" height="80" as="geometry" />
        </mxCell>
        <mxCell id="gSSbxNlLud2EmhHwHeiP-77" value="0" style="text;html=1;align=center;verticalAlign=middle;whiteSpace=wrap;rounded=0;" vertex="1" parent="1">
          <mxGeometry x="990" y="70" width="60" height="30" as="geometry" />
        </mxCell>
        <mxCell id="gSSbxNlLud2EmhHwHeiP-78" value="1" style="text;html=1;align=center;verticalAlign=middle;whiteSpace=wrap;rounded=0;" vertex="1" parent="1">
          <mxGeometry x="1070" y="70" width="60" height="30" as="geometry" />
        </mxCell>
        <mxCell id="gSSbxNlLud2EmhHwHeiP-79" value="2" style="text;html=1;align=center;verticalAlign=middle;whiteSpace=wrap;rounded=0;" vertex="1" parent="1">
          <mxGeometry x="1150" y="70" width="60" height="30" as="geometry" />
        </mxCell>
        <mxCell id="gSSbxNlLud2EmhHwHeiP-80" value="3" style="text;html=1;align=center;verticalAlign=middle;whiteSpace=wrap;rounded=0;" vertex="1" parent="1">
          <mxGeometry x="1230" y="70" width="60" height="30" as="geometry" />
        </mxCell>
        <mxCell id="gSSbxNlLud2EmhHwHeiP-81" value="4" style="text;html=1;align=center;verticalAlign=middle;whiteSpace=wrap;rounded=0;" vertex="1" parent="1">
          <mxGeometry x="1310" y="70" width="60" height="30" as="geometry" />
        </mxCell>
        <mxCell id="gSSbxNlLud2EmhHwHeiP-82" value="5" style="text;html=1;align=center;verticalAlign=middle;whiteSpace=wrap;rounded=0;" vertex="1" parent="1">
          <mxGeometry x="1390" y="70" width="60" height="30" as="geometry" />
        </mxCell>
        <mxCell id="gSSbxNlLud2EmhHwHeiP-83" value="6" style="text;html=1;align=center;verticalAlign=middle;whiteSpace=wrap;rounded=0;" vertex="1" parent="1">
          <mxGeometry x="1470" y="70" width="60" height="30" as="geometry" />
        </mxCell>
        <mxCell id="gSSbxNlLud2EmhHwHeiP-84" value="7" style="text;html=1;align=center;verticalAlign=middle;whiteSpace=wrap;rounded=0;" vertex="1" parent="1">
          <mxGeometry x="1550" y="70" width="60" height="30" as="geometry" />
        </mxCell>
        <mxCell id="gSSbxNlLud2EmhHwHeiP-85" value="0" style="text;html=1;align=center;verticalAlign=middle;whiteSpace=wrap;rounded=0;" vertex="1" parent="1">
          <mxGeometry x="900" y="140" width="60" height="30" as="geometry" />
        </mxCell>
        <mxCell id="gSSbxNlLud2EmhHwHeiP-86" value="1" style="text;html=1;align=center;verticalAlign=middle;whiteSpace=wrap;rounded=0;" vertex="1" parent="1">
          <mxGeometry x="900" y="215" width="60" height="30" as="geometry" />
        </mxCell>
        <mxCell id="gSSbxNlLud2EmhHwHeiP-87" value="2" style="text;html=1;align=center;verticalAlign=middle;whiteSpace=wrap;rounded=0;" vertex="1" parent="1">
          <mxGeometry x="900" y="295" width="60" height="30" as="geometry" />
        </mxCell>
        <mxCell id="gSSbxNlLud2EmhHwHeiP-88" value="3" style="text;html=1;align=center;verticalAlign=middle;whiteSpace=wrap;rounded=0;" vertex="1" parent="1">
          <mxGeometry x="900" y="375" width="60" height="30" as="geometry" />
        </mxCell>
        <mxCell id="gSSbxNlLud2EmhHwHeiP-89" value="4" style="text;html=1;align=center;verticalAlign=middle;whiteSpace=wrap;rounded=0;" vertex="1" parent="1">
          <mxGeometry x="900" y="455" width="60" height="30" as="geometry" />
        </mxCell>
        <mxCell id="gSSbxNlLud2EmhHwHeiP-90" value="5" style="text;html=1;align=center;verticalAlign=middle;whiteSpace=wrap;rounded=0;" vertex="1" parent="1">
          <mxGeometry x="900" y="535" width="60" height="30" as="geometry" />
        </mxCell>
        <mxCell id="gSSbxNlLud2EmhHwHeiP-91" value="6" style="text;html=1;align=center;verticalAlign=middle;whiteSpace=wrap;rounded=0;" vertex="1" parent="1">
          <mxGeometry x="900" y="610" width="60" height="30" as="geometry" />
        </mxCell>
        <mxCell id="gSSbxNlLud2EmhHwHeiP-92" value="7" style="text;html=1;align=center;verticalAlign=middle;whiteSpace=wrap;rounded=0;" vertex="1" parent="1">
          <mxGeometry x="900" y="690" width="60" height="30" as="geometry" />
        </mxCell>
        <mxCell id="gSSbxNlLud2EmhHwHeiP-93" value="&lt;b&gt;&amp;lt;&amp;lt;enummeration&amp;gt;&amp;gt;&lt;/b&gt;&lt;div&gt;&lt;b&gt;GameState&lt;/b&gt;&lt;/div&gt;" style="swimlane;fontStyle=0;childLayout=stackLayout;horizontal=1;startSize=40;fillColor=none;horizontalStack=0;resizeParent=1;resizeParentMax=0;resizeLast=0;collapsible=1;marginBottom=0;whiteSpace=wrap;html=1;" vertex="1" parent="1">
          <mxGeometry x="-590" y="1234" width="160" height="110" as="geometry" />
        </mxCell>
        <mxCell id="gSSbxNlLud2EmhHwHeiP-94" value="+ ONGOING (00)&lt;div&gt;+ P1WIN (01)&lt;/div&gt;&lt;div&gt;+ P2WIN (10)&lt;/div&gt;&lt;div&gt;+ TIE (11)&lt;/div&gt;" style="text;strokeColor=none;fillColor=none;align=left;verticalAlign=top;spacingLeft=4;spacingRight=4;overflow=hidden;rotatable=0;points=[[0,0.5],[1,0.5]];portConstraint=eastwest;whiteSpace=wrap;html=1;" vertex="1" parent="gSSbxNlLud2EmhHwHeiP-93">
          <mxGeometry y="40" width="160" height="70" as="geometry" />
        </mxCell>
        <mxCell id="gSSbxNlLud2EmhHwHeiP-95" value="" style="edgeStyle=orthogonalEdgeStyle;rounded=0;orthogonalLoop=1;jettySize=auto;html=1;startArrow=diamond;startFill=1;" edge="1" parent="1" source="gSSbxNlLud2EmhHwHeiP-121" target="gSSbxNlLud2EmhHwHeiP-94">
          <mxGeometry relative="1" as="geometry">
            <mxPoint x="10" y="690" as="sourcePoint" />
          </mxGeometry>
        </mxCell>
        <mxCell id="gSSbxNlLud2EmhHwHeiP-96" value="" style="edgeStyle=orthogonalEdgeStyle;rounded=0;orthogonalLoop=1;jettySize=auto;html=1;startArrow=none;startFill=0;" edge="1" parent="1" source="gSSbxNlLud2EmhHwHeiP-3" target="gSSbxNlLud2EmhHwHeiP-104">
          <mxGeometry relative="1" as="geometry">
            <mxPoint x="360" y="410" as="sourcePoint" />
            <mxPoint x="400" y="344" as="targetPoint" />
            <Array as="points">
              <mxPoint x="-160" y="254" />
            </Array>
          </mxGeometry>
        </mxCell>
        <mxCell id="gSSbxNlLud2EmhHwHeiP-97" value="" style="edgeStyle=orthogonalEdgeStyle;rounded=0;orthogonalLoop=1;jettySize=auto;html=1;startArrow=diamond;startFill=0;" edge="1" parent="1" source="gSSbxNlLud2EmhHwHeiP-4" target="gSSbxNlLud2EmhHwHeiP-106">
          <mxGeometry relative="1" as="geometry">
            <mxPoint x="70" y="523.9999999999995" as="targetPoint" />
            <Array as="points">
              <mxPoint x="160" y="560" />
              <mxPoint x="160" y="560" />
            </Array>
          </mxGeometry>
        </mxCell>
        <mxCell id="gSSbxNlLud2EmhHwHeiP-98" value="" style="edgeStyle=orthogonalEdgeStyle;rounded=0;orthogonalLoop=1;jettySize=auto;html=1;startArrow=diamond;startFill=0;" edge="1" parent="1" source="gSSbxNlLud2EmhHwHeiP-101" target="gSSbxNlLud2EmhHwHeiP-105">
          <mxGeometry relative="1" as="geometry">
            <mxPoint x="229.99999999999955" y="400" as="targetPoint" />
            <Array as="points" />
          </mxGeometry>
        </mxCell>
        <mxCell id="gSSbxNlLud2EmhHwHeiP-99" value="" style="edgeStyle=orthogonalEdgeStyle;rounded=0;orthogonalLoop=1;jettySize=auto;html=1;startArrow=diamond;startFill=0;" edge="1" parent="1" source="gSSbxNlLud2EmhHwHeiP-101" target="gSSbxNlLud2EmhHwHeiP-7">
          <mxGeometry relative="1" as="geometry">
            <Array as="points">
              <mxPoint x="700" y="250" />
            </Array>
          </mxGeometry>
        </mxCell>
        <mxCell id="gSSbxNlLud2EmhHwHeiP-100" value="" style="edgeStyle=orthogonalEdgeStyle;rounded=0;orthogonalLoop=1;jettySize=auto;html=1;startArrow=diamond;startFill=1;" edge="1" parent="1" source="gSSbxNlLud2EmhHwHeiP-101" target="gSSbxNlLud2EmhHwHeiP-114">
          <mxGeometry relative="1" as="geometry" />
        </mxCell>
        <mxCell id="gSSbxNlLud2EmhHwHeiP-101" value="&lt;div&gt;CheckersBoard&lt;/div&gt;" style="swimlane;fontStyle=1;align=center;verticalAlign=top;childLayout=stackLayout;horizontal=1;startSize=26;horizontalStack=0;resizeParent=1;resizeParentMax=0;resizeLast=0;collapsible=1;marginBottom=0;whiteSpace=wrap;html=1;" vertex="1" parent="1">
          <mxGeometry x="145" y="60" width="270" height="380" as="geometry" />
        </mxCell>
        <mxCell id="gSSbxNlLud2EmhHwHeiP-102" value="- GameBoard: CheckersPiece[][]&lt;div&gt;- P1: Set&amp;lt;(int, int)&amp;gt;&lt;/div&gt;&lt;div&gt;- P2: Set&amp;lt;(int, int)&amp;gt;&lt;br&gt;&lt;div&gt;- BoardWidth: int&lt;/div&gt;&lt;div&gt;- BoardHeight: int&lt;/div&gt;&lt;/div&gt;" style="text;strokeColor=none;fillColor=none;align=left;verticalAlign=top;spacingLeft=4;spacingRight=4;overflow=hidden;rotatable=0;points=[[0,0.5],[1,0.5]];portConstraint=eastwest;whiteSpace=wrap;html=1;" vertex="1" parent="gSSbxNlLud2EmhHwHeiP-101">
          <mxGeometry y="26" width="270" height="84" as="geometry" />
        </mxCell>
        <mxCell id="gSSbxNlLud2EmhHwHeiP-103" value="" style="line;strokeWidth=1;fillColor=none;align=left;verticalAlign=middle;spacingTop=-1;spacingLeft=3;spacingRight=3;rotatable=0;labelPosition=right;points=[];portConstraint=eastwest;strokeColor=inherit;" vertex="1" parent="gSSbxNlLud2EmhHwHeiP-101">
          <mxGeometry y="110" width="270" height="8" as="geometry" />
        </mxCell>
        <mxCell id="gSSbxNlLud2EmhHwHeiP-104" value="&lt;div&gt;// Load/Save methods.&lt;/div&gt;&lt;div&gt;+ CheckersBoard(Data: CheckersBoardData)&lt;/div&gt;&lt;div&gt;+ Load(Data: CheckersBoardData)&lt;/div&gt;&lt;div&gt;+ Load(Board: CheckersPiece[][])&lt;/div&gt;&lt;div&gt;+ SaveBoard(): CheckersBoardData&lt;/div&gt;&lt;div&gt;&lt;br&gt;&lt;/div&gt;&lt;div&gt;// Query Board States.&lt;/div&gt;&lt;div&gt;&lt;span style=&quot;background-color: transparent; color: light-dark(rgb(0, 0, 0), rgb(255, 255, 255));&quot;&gt;+ GetBoard(): const CheckersPiece[][]&lt;/span&gt;&lt;/div&gt;&lt;div&gt;&lt;span style=&quot;background-color: transparent; color: light-dark(rgb(0, 0, 0), rgb(255, 255, 255));&quot;&gt;+ GetP1(): const Set&amp;lt;(int, int)&amp;gt;&lt;/span&gt;&lt;/div&gt;&lt;div&gt;&lt;span style=&quot;background-color: transparent; color: light-dark(rgb(0, 0, 0), rgb(255, 255, 255));&quot;&gt;&lt;/span&gt;&lt;/div&gt;+ GetP2(): const Set&amp;lt;(int, int)&amp;gt;&lt;div&gt;&lt;br&gt;&lt;/div&gt;&lt;div&gt;// Simulate Moves.&lt;/div&gt;&lt;div&gt;+ MakeMove(CheckersMove): void&lt;/div&gt;&lt;div&gt;&lt;br&gt;&lt;/div&gt;&lt;div&gt;// Manually Interact with Pieces.&lt;/div&gt;&lt;div&gt;+ GetPiece(int, int): CheckersPiece&lt;div&gt;+ SetPiece(int, int, CheckersPiece): void&lt;/div&gt;&lt;/div&gt;" style="text;strokeColor=none;fillColor=none;align=left;verticalAlign=top;spacingLeft=4;spacingRight=4;overflow=hidden;rotatable=0;points=[[0,0.5],[1,0.5]];portConstraint=eastwest;whiteSpace=wrap;html=1;" vertex="1" parent="gSSbxNlLud2EmhHwHeiP-101">
          <mxGeometry y="118" width="270" height="262" as="geometry" />
        </mxCell>
        <mxCell id="gSSbxNlLud2EmhHwHeiP-105" value="&lt;b&gt;&amp;lt;&amp;lt;enummeration&amp;gt;&amp;gt;&lt;/b&gt;&lt;div&gt;&lt;b&gt;CheckersPiece&lt;/b&gt;&lt;/div&gt;" style="swimlane;fontStyle=0;childLayout=stackLayout;horizontal=1;startSize=40;fillColor=none;horizontalStack=0;resizeParent=1;resizeParentMax=0;resizeLast=0;collapsible=1;marginBottom=0;whiteSpace=wrap;html=1;" vertex="1" parent="1">
          <mxGeometry x="200" y="485" width="160" height="130" as="geometry" />
        </mxCell>
        <mxCell id="gSSbxNlLud2EmhHwHeiP-106" value="&lt;div&gt;+ None&lt;/div&gt;+ P1Pawn&lt;div&gt;+ P1King&lt;/div&gt;&lt;div&gt;+ P2Pawn&lt;/div&gt;&lt;div&gt;+ P2King&lt;/div&gt;&lt;div&gt;&lt;br&gt;&lt;/div&gt;" style="text;strokeColor=none;fillColor=none;align=left;verticalAlign=top;spacingLeft=4;spacingRight=4;overflow=hidden;rotatable=0;points=[[0,0.5],[1,0.5]];portConstraint=eastwest;whiteSpace=wrap;html=1;" vertex="1" parent="gSSbxNlLud2EmhHwHeiP-105">
          <mxGeometry y="40" width="160" height="90" as="geometry" />
        </mxCell>
        <mxCell id="gSSbxNlLud2EmhHwHeiP-107" value="The &lt;b&gt;GameController&lt;/b&gt;&amp;nbsp;will decide which piece can move where.&lt;div&gt;This will allow us to determine the win conditions.&lt;/div&gt;&lt;div&gt;&lt;br&gt;&lt;/div&gt;&lt;div&gt;The &lt;b&gt;CheckerBoard&lt;/b&gt;&amp;nbsp;will keep track of the pieces in play.&lt;/div&gt;" style="text;html=1;align=center;verticalAlign=middle;whiteSpace=wrap;rounded=0;" vertex="1" parent="1">
          <mxGeometry x="90" y="780" width="360" height="70" as="geometry" />
        </mxCell>
        <mxCell id="gSSbxNlLud2EmhHwHeiP-108" style="edgeStyle=orthogonalEdgeStyle;rounded=0;orthogonalLoop=1;jettySize=auto;html=1;exitX=0;exitY=0.5;exitDx=0;exitDy=0;startArrow=diamond;startFill=1;" edge="1" parent="1" source="gSSbxNlLud2EmhHwHeiP-6" target="gSSbxNlLud2EmhHwHeiP-12">
          <mxGeometry relative="1" as="geometry" />
        </mxCell>
        <mxCell id="gSSbxNlLud2EmhHwHeiP-109" value="" style="edgeStyle=orthogonalEdgeStyle;rounded=0;orthogonalLoop=1;jettySize=auto;html=1;startArrow=diamond;startFill=1;" edge="1" parent="1" source="gSSbxNlLud2EmhHwHeiP-3" target="gSSbxNlLud2EmhHwHeiP-111">
          <mxGeometry relative="1" as="geometry">
            <mxPoint x="-235" y="107" as="sourcePoint" />
            <Array as="points">
              <mxPoint x="-235" y="320" />
              <mxPoint x="-235" y="320" />
            </Array>
          </mxGeometry>
        </mxCell>
        <mxCell id="gSSbxNlLud2EmhHwHeiP-110" value="" style="edgeStyle=orthogonalEdgeStyle;rounded=0;orthogonalLoop=1;jettySize=auto;html=1;" edge="1" parent="1" source="gSSbxNlLud2EmhHwHeiP-111" target="gSSbxNlLud2EmhHwHeiP-114">
          <mxGeometry relative="1" as="geometry">
            <mxPoint x="55" y="-61" as="targetPoint" />
          </mxGeometry>
        </mxCell>
        <mxCell id="gSSbxNlLud2EmhHwHeiP-111" value="CheckersGameData" style="swimlane;fontStyle=1;align=center;verticalAlign=top;childLayout=stackLayout;horizontal=1;startSize=26;horizontalStack=0;resizeParent=1;resizeParentMax=0;resizeLast=0;collapsible=1;marginBottom=0;whiteSpace=wrap;html=1;" vertex="1" parent="1">
          <mxGeometry x="-370" y="-120" width="270" height="118" as="geometry" />
        </mxCell>
        <mxCell id="gSSbxNlLud2EmhHwHeiP-112" value="+ BoardLayout: CheckersBoardData&lt;div&gt;+ CanCapture: bool = false&lt;/div&gt;&lt;div&gt;+ HasMoved: bool = false&lt;/div&gt;&lt;div&gt;+ CurrentPiece: (int, int) = (-1, -1)&lt;/div&gt;&lt;div&gt;+ CurrentGameState: GameState = ONGOING&lt;/div&gt;" style="text;strokeColor=none;fillColor=none;align=left;verticalAlign=top;spacingLeft=4;spacingRight=4;overflow=hidden;rotatable=0;points=[[0,0.5],[1,0.5]];portConstraint=eastwest;whiteSpace=wrap;html=1;" vertex="1" parent="gSSbxNlLud2EmhHwHeiP-111">
          <mxGeometry y="26" width="270" height="84" as="geometry" />
        </mxCell>
        <mxCell id="gSSbxNlLud2EmhHwHeiP-113" value="" style="line;strokeWidth=1;fillColor=none;align=left;verticalAlign=middle;spacingTop=-1;spacingLeft=3;spacingRight=3;rotatable=0;labelPosition=right;points=[];portConstraint=eastwest;strokeColor=inherit;" vertex="1" parent="gSSbxNlLud2EmhHwHeiP-111">
          <mxGeometry y="110" width="270" height="8" as="geometry" />
        </mxCell>
        <mxCell id="gSSbxNlLud2EmhHwHeiP-114" value="CheckersBoardData" style="swimlane;fontStyle=1;align=center;verticalAlign=top;childLayout=stackLayout;horizontal=1;startSize=26;horizontalStack=0;resizeParent=1;resizeParentMax=0;resizeLast=0;collapsible=1;marginBottom=0;whiteSpace=wrap;html=1;" vertex="1" parent="1">
          <mxGeometry x="200" y="-115" width="160" height="108" as="geometry" />
        </mxCell>
        <mxCell id="gSSbxNlLud2EmhHwHeiP-115" value="+ P1: Map&amp;lt;(int, int), bool&amp;gt;&lt;div&gt;+ P2: Map&amp;lt;(int, int), bool&amp;gt;&lt;/div&gt;&lt;div&gt;+ Width: int&lt;/div&gt;&lt;div&gt;+ Height: int&lt;/div&gt;" style="text;strokeColor=none;fillColor=none;align=left;verticalAlign=top;spacingLeft=4;spacingRight=4;overflow=hidden;rotatable=0;points=[[0,0.5],[1,0.5]];portConstraint=eastwest;whiteSpace=wrap;html=1;" vertex="1" parent="gSSbxNlLud2EmhHwHeiP-114">
          <mxGeometry y="26" width="160" height="74" as="geometry" />
        </mxCell>
        <mxCell id="gSSbxNlLud2EmhHwHeiP-116" value="" style="line;strokeWidth=1;fillColor=none;align=left;verticalAlign=middle;spacingTop=-1;spacingLeft=3;spacingRight=3;rotatable=0;labelPosition=right;points=[];portConstraint=eastwest;strokeColor=inherit;" vertex="1" parent="gSSbxNlLud2EmhHwHeiP-114">
          <mxGeometry y="100" width="160" height="8" as="geometry" />
        </mxCell>
        <mxCell id="gSSbxNlLud2EmhHwHeiP-117" value="For loading/storing matches.&lt;div&gt;A serialization method can be added as needed.&lt;/div&gt;" style="text;html=1;align=center;verticalAlign=middle;whiteSpace=wrap;rounded=0;" vertex="1" parent="1">
          <mxGeometry x="-80" y="-170" width="280" height="40" as="geometry" />
        </mxCell>
        <mxCell id="gSSbxNlLud2EmhHwHeiP-118" value="&lt;div&gt;&amp;lt;&amp;lt;interface&amp;gt;&amp;gt;&lt;/div&gt;BoardGame" style="swimlane;fontStyle=1;align=center;verticalAlign=top;childLayout=stackLayout;horizontal=1;startSize=40;horizontalStack=0;resizeParent=1;resizeParentMax=0;resizeLast=0;collapsible=1;marginBottom=0;whiteSpace=wrap;html=1;" vertex="1" parent="1">
          <mxGeometry x="-340" y="1040" width="390" height="430" as="geometry" />
        </mxCell>
        <mxCell id="gSSbxNlLud2EmhHwHeiP-119" value="- GameStateChanged: Notifier&amp;lt;GameState&amp;gt;&lt;div&gt;- DisplayChanged: Notifier&amp;lt;LayerBitFlags&amp;gt;&lt;br&gt;&lt;div&gt;- ActivePlayerChanged: Notifier&amp;lt;int&amp;gt;&lt;/div&gt;&lt;/div&gt;" style="text;strokeColor=none;fillColor=none;align=left;verticalAlign=top;spacingLeft=4;spacingRight=4;overflow=hidden;rotatable=0;points=[[0,0.5],[1,0.5]];portConstraint=eastwest;whiteSpace=wrap;html=1;" vertex="1" parent="gSSbxNlLud2EmhHwHeiP-118">
          <mxGeometry y="40" width="390" height="60" as="geometry" />
        </mxCell>
        <mxCell id="gSSbxNlLud2EmhHwHeiP-120" value="" style="line;strokeWidth=1;fillColor=none;align=left;verticalAlign=middle;spacingTop=-1;spacingLeft=3;spacingRight=3;rotatable=0;labelPosition=right;points=[];portConstraint=eastwest;strokeColor=inherit;" vertex="1" parent="gSSbxNlLud2EmhHwHeiP-118">
          <mxGeometry y="100" width="390" height="8" as="geometry" />
        </mxCell>
        <mxCell id="gSSbxNlLud2EmhHwHeiP-121" value="&lt;div&gt;// Get Visuals.&lt;/div&gt;+ GetBoardDimensions(): (int, int)&lt;div&gt;+ GetCells(Layer: LayerBitFlags): List&amp;lt;const int[][]&amp;gt;&lt;/div&gt;&lt;div&gt;&lt;br&gt;&lt;/div&gt;&lt;div&gt;// Handle Inputs.&lt;/div&gt;&lt;div&gt;+ ReceiveInputs(int, int): void&lt;/div&gt;&lt;div&gt;&lt;br&gt;&lt;/div&gt;&lt;div&gt;// Manually Handle Game States.&lt;/div&gt;&lt;div&gt;+ SetGameState(bool, bool): void&lt;/div&gt;&lt;div&gt;+ GetGameState(): GameState&lt;/div&gt;&lt;div&gt;&lt;br&gt;&lt;/div&gt;&lt;div&gt;&lt;br&gt;&lt;/div&gt;&lt;div&gt;// Register Callbacks&lt;/div&gt;&lt;div&gt;+ RegisterGameStateChangedListener(Listener&amp;lt;&amp;gt;): void&lt;/div&gt;&lt;div&gt;&lt;/div&gt;+ DeregisterGameStateChangedListener(Listener&amp;lt;&amp;gt;): void&lt;div&gt;&lt;br&gt;&lt;/div&gt;&lt;div&gt;+ RegisterDisplayChangedListener(Listener&amp;lt;LayerBitFlags&amp;gt;): void&lt;/div&gt;&lt;div&gt;+ DeregisterDisplayChangedListener(Listener&amp;lt;LayerBitFlags&amp;gt;): void&lt;/div&gt;&lt;div&gt;&lt;br&gt;&lt;/div&gt;&lt;div&gt;&lt;div&gt;+ RegisterActivePlayerChangedListener(Listener&amp;lt;int&amp;gt;): void&lt;/div&gt;&lt;div&gt;&lt;/div&gt;+ DeregisterActivePlayerChangedListener(Listener&amp;lt;int&amp;gt;): void&lt;/div&gt;" style="text;strokeColor=none;fillColor=none;align=left;verticalAlign=top;spacingLeft=4;spacingRight=4;overflow=hidden;rotatable=0;points=[[0,0.5],[1,0.5]];portConstraint=eastwest;whiteSpace=wrap;html=1;" vertex="1" parent="gSSbxNlLud2EmhHwHeiP-118">
          <mxGeometry y="108" width="390" height="322" as="geometry" />
        </mxCell>
        <mxCell id="gSSbxNlLud2EmhHwHeiP-122" value="&lt;div&gt;&lt;span style=&quot;font-weight: normal;&quot;&gt;&lt;i&gt;&amp;lt;&amp;lt;template&amp;gt;&amp;gt;&lt;/i&gt;&lt;/span&gt;&lt;/div&gt;Notifier&amp;lt;T&amp;gt;" style="swimlane;fontStyle=1;align=center;verticalAlign=top;childLayout=stackLayout;horizontal=1;startSize=40;horizontalStack=0;resizeParent=1;resizeParentMax=0;resizeLast=0;collapsible=1;marginBottom=0;whiteSpace=wrap;html=1;" vertex="1" parent="1">
          <mxGeometry x="230" y="1180" width="200" height="150" as="geometry" />
        </mxCell>
        <mxCell id="gSSbxNlLud2EmhHwHeiP-123" value="- Listeners: Set&amp;lt;Listener&amp;lt;T&amp;gt;&amp;gt;" style="text;strokeColor=none;fillColor=none;align=left;verticalAlign=top;spacingLeft=4;spacingRight=4;overflow=hidden;rotatable=0;points=[[0,0.5],[1,0.5]];portConstraint=eastwest;whiteSpace=wrap;html=1;" vertex="1" parent="gSSbxNlLud2EmhHwHeiP-122">
          <mxGeometry y="40" width="200" height="26" as="geometry" />
        </mxCell>
        <mxCell id="gSSbxNlLud2EmhHwHeiP-124" value="" style="line;strokeWidth=1;fillColor=none;align=left;verticalAlign=middle;spacingTop=-1;spacingLeft=3;spacingRight=3;rotatable=0;labelPosition=right;points=[];portConstraint=eastwest;strokeColor=inherit;" vertex="1" parent="gSSbxNlLud2EmhHwHeiP-122">
          <mxGeometry y="66" width="200" height="8" as="geometry" />
        </mxCell>
        <mxCell id="gSSbxNlLud2EmhHwHeiP-125" value="+ Connect(Listener&amp;lt;T&amp;gt;): void&lt;div&gt;+ Diconnect(Listener&amp;lt;T&amp;gt;): void&lt;/div&gt;&lt;div&gt;+ Notify(T): void&lt;/div&gt;&lt;div&gt;+ Close(): void&lt;/div&gt;" style="text;strokeColor=none;fillColor=none;align=left;verticalAlign=top;spacingLeft=4;spacingRight=4;overflow=hidden;rotatable=0;points=[[0,0.5],[1,0.5]];portConstraint=eastwest;whiteSpace=wrap;html=1;" vertex="1" parent="gSSbxNlLud2EmhHwHeiP-122">
          <mxGeometry y="74" width="200" height="76" as="geometry" />
        </mxCell>
        <mxCell id="gSSbxNlLud2EmhHwHeiP-126" value="" style="edgeStyle=orthogonalEdgeStyle;rounded=0;orthogonalLoop=1;jettySize=auto;html=1;" edge="1" parent="1" source="gSSbxNlLud2EmhHwHeiP-130" target="gSSbxNlLud2EmhHwHeiP-125">
          <mxGeometry relative="1" as="geometry" />
        </mxCell>
        <mxCell id="gSSbxNlLud2EmhHwHeiP-127" value="&lt;div&gt;&lt;span style=&quot;font-weight: normal;&quot;&gt;&lt;i&gt;&amp;lt;&amp;lt;template&amp;gt;&amp;gt;&lt;/i&gt;&lt;/span&gt;&lt;/div&gt;&lt;div&gt;&lt;span style=&quot;font-weight: normal;&quot;&gt;&lt;i&gt;&amp;lt;&amp;lt;interface&amp;gt;&amp;gt;&lt;/i&gt;&lt;/span&gt;&lt;/div&gt;&lt;div&gt;&lt;span style=&quot;background-color: transparent; color: light-dark(rgb(0, 0, 0), rgb(255, 255, 255));&quot;&gt;Listener&amp;lt;T&amp;gt;&lt;/span&gt;&lt;/div&gt;" style="swimlane;fontStyle=1;align=center;verticalAlign=top;childLayout=stackLayout;horizontal=1;startSize=60;horizontalStack=0;resizeParent=1;resizeParentMax=0;resizeLast=0;collapsible=1;marginBottom=0;whiteSpace=wrap;html=1;" vertex="1" parent="1">
          <mxGeometry x="550" y="1160" width="220" height="170" as="geometry" />
        </mxCell>
        <mxCell id="gSSbxNlLud2EmhHwHeiP-128" value="- Notifiers: Set&amp;lt;Notifier&amp;lt;T&amp;gt;&amp;gt;" style="text;strokeColor=none;fillColor=none;align=left;verticalAlign=top;spacingLeft=4;spacingRight=4;overflow=hidden;rotatable=0;points=[[0,0.5],[1,0.5]];portConstraint=eastwest;whiteSpace=wrap;html=1;" vertex="1" parent="gSSbxNlLud2EmhHwHeiP-127">
          <mxGeometry y="60" width="220" height="26" as="geometry" />
        </mxCell>
        <mxCell id="gSSbxNlLud2EmhHwHeiP-129" value="" style="line;strokeWidth=1;fillColor=none;align=left;verticalAlign=middle;spacingTop=-1;spacingLeft=3;spacingRight=3;rotatable=0;labelPosition=right;points=[];portConstraint=eastwest;strokeColor=inherit;" vertex="1" parent="gSSbxNlLud2EmhHwHeiP-127">
          <mxGeometry y="86" width="220" height="8" as="geometry" />
        </mxCell>
        <mxCell id="gSSbxNlLud2EmhHwHeiP-130" value="+ OnRegistered(Notifier&amp;lt;T&amp;gt;): void&lt;div&gt;+ OnDeregistered(Listener&amp;lt;T&amp;gt;): void&lt;/div&gt;&lt;div&gt;+ Receive(T): void&lt;/div&gt;&lt;div&gt;+ Close(): void&lt;/div&gt;" style="text;strokeColor=none;fillColor=none;align=left;verticalAlign=top;spacingLeft=4;spacingRight=4;overflow=hidden;rotatable=0;points=[[0,0.5],[1,0.5]];portConstraint=eastwest;whiteSpace=wrap;html=1;" vertex="1" parent="gSSbxNlLud2EmhHwHeiP-127">
          <mxGeometry y="94" width="220" height="76" as="geometry" />
        </mxCell>
        <mxCell id="gSSbxNlLud2EmhHwHeiP-131" value="" style="edgeStyle=orthogonalEdgeStyle;rounded=0;orthogonalLoop=1;jettySize=auto;html=1;startArrow=diamond;startFill=0;" edge="1" parent="1" source="gSSbxNlLud2EmhHwHeiP-123" target="gSSbxNlLud2EmhHwHeiP-128">
          <mxGeometry relative="1" as="geometry" />
        </mxCell>
        <mxCell id="gSSbxNlLud2EmhHwHeiP-132" value="Observer Pattern" style="shape=umlFrame;whiteSpace=wrap;html=1;pointerEvents=0;width=70;height=40;" vertex="1" parent="1">
          <mxGeometry x="180" y="1120" width="650" height="260" as="geometry" />
        </mxCell>
      </root>
    </mxGraphModel>
  </diagram>
  <diagram id="2U-yJ4iHu435Ss1_Db7c" name="ControlFlow">
    <mxGraphModel grid="1" page="1" gridSize="10" guides="1" tooltips="1" connect="1" arrows="1" fold="1" pageScale="1" pageWidth="850" pageHeight="1100" math="0" shadow="0">
      <root>
        <mxCell id="0" />
        <mxCell id="1" parent="0" />
        <mxCell id="0GCq4Y744uVw-E18_V-o-1" value="" style="edgeStyle=orthogonalEdgeStyle;rounded=0;orthogonalLoop=1;jettySize=auto;html=1;" edge="1" parent="1" source="0GCq4Y744uVw-E18_V-o-2" target="0GCq4Y744uVw-E18_V-o-11">
          <mxGeometry relative="1" as="geometry" />
        </mxCell>
        <mxCell id="0GCq4Y744uVw-E18_V-o-2" value="Start Turn" style="rounded=0;whiteSpace=wrap;html=1;" vertex="1" parent="1">
          <mxGeometry x="1060" y="370" width="80" height="30" as="geometry" />
        </mxCell>
        <mxCell id="0GCq4Y744uVw-E18_V-o-3" value="" style="edgeStyle=orthogonalEdgeStyle;rounded=0;orthogonalLoop=1;jettySize=auto;html=1;" edge="1" parent="1" source="0GCq4Y744uVw-E18_V-o-7" target="0GCq4Y744uVw-E18_V-o-9">
          <mxGeometry relative="1" as="geometry" />
        </mxCell>
        <mxCell id="0GCq4Y744uVw-E18_V-o-4" value="Yes" style="edgeLabel;html=1;align=center;verticalAlign=middle;resizable=0;points=[];" connectable="0" vertex="1" parent="0GCq4Y744uVw-E18_V-o-3">
          <mxGeometry x="-0.2589" relative="1" as="geometry">
            <mxPoint as="offset" />
          </mxGeometry>
        </mxCell>
        <mxCell id="0GCq4Y744uVw-E18_V-o-5" value="" style="edgeStyle=orthogonalEdgeStyle;rounded=0;orthogonalLoop=1;jettySize=auto;html=1;" edge="1" parent="1" source="0GCq4Y744uVw-E18_V-o-7" target="0GCq4Y744uVw-E18_V-o-13">
          <mxGeometry relative="1" as="geometry" />
        </mxCell>
        <mxCell id="0GCq4Y744uVw-E18_V-o-6" value="No" style="edgeLabel;html=1;align=center;verticalAlign=middle;resizable=0;points=[];" connectable="0" vertex="1" parent="0GCq4Y744uVw-E18_V-o-5">
          <mxGeometry x="-0.0542" relative="1" as="geometry">
            <mxPoint y="-3" as="offset" />
          </mxGeometry>
        </mxCell>
        <mxCell id="0GCq4Y744uVw-E18_V-o-7" value="Can Capture?" style="rhombus;whiteSpace=wrap;html=1;" vertex="1" parent="1">
          <mxGeometry x="1050" y="540" width="100" height="70" as="geometry" />
        </mxCell>
        <mxCell id="0GCq4Y744uVw-E18_V-o-8" value="" style="edgeStyle=orthogonalEdgeStyle;rounded=0;orthogonalLoop=1;jettySize=auto;html=1;" edge="1" parent="1" source="0GCq4Y744uVw-E18_V-o-9" target="0GCq4Y744uVw-E18_V-o-21">
          <mxGeometry relative="1" as="geometry" />
        </mxCell>
        <mxCell id="0GCq4Y744uVw-E18_V-o-9" value="Remove non-Capture Moves" style="rounded=0;whiteSpace=wrap;html=1;" vertex="1" parent="1">
          <mxGeometry x="1200" y="550" width="140" height="50" as="geometry" />
        </mxCell>
        <mxCell id="0GCq4Y744uVw-E18_V-o-10" value="" style="edgeStyle=orthogonalEdgeStyle;rounded=0;orthogonalLoop=1;jettySize=auto;html=1;" edge="1" parent="1" source="0GCq4Y744uVw-E18_V-o-11" target="0GCq4Y744uVw-E18_V-o-7">
          <mxGeometry relative="1" as="geometry" />
        </mxCell>
        <mxCell id="0GCq4Y744uVw-E18_V-o-11" value="Get all viable Moves" style="rounded=0;whiteSpace=wrap;html=1;" vertex="1" parent="1">
          <mxGeometry x="1040" y="450" width="120" height="30" as="geometry" />
        </mxCell>
        <mxCell id="0GCq4Y744uVw-E18_V-o-12" value="" style="edgeStyle=orthogonalEdgeStyle;rounded=0;orthogonalLoop=1;jettySize=auto;html=1;" edge="1" parent="1" source="0GCq4Y744uVw-E18_V-o-13" target="0GCq4Y744uVw-E18_V-o-14">
          <mxGeometry relative="1" as="geometry" />
        </mxCell>
        <mxCell id="0GCq4Y744uVw-E18_V-o-13" value="Make a Move" style="rounded=0;whiteSpace=wrap;html=1;" vertex="1" parent="1">
          <mxGeometry x="1055" y="660" width="90" height="30" as="geometry" />
        </mxCell>
        <mxCell id="0GCq4Y744uVw-E18_V-o-14" value="End Turn" style="rounded=0;whiteSpace=wrap;html=1;" vertex="1" parent="1">
          <mxGeometry x="1060" y="770" width="80" height="30" as="geometry" />
        </mxCell>
        <mxCell id="0GCq4Y744uVw-E18_V-o-15" value="" style="edgeStyle=orthogonalEdgeStyle;rounded=0;orthogonalLoop=1;jettySize=auto;html=1;" edge="1" parent="1" source="0GCq4Y744uVw-E18_V-o-19" target="0GCq4Y744uVw-E18_V-o-9">
          <mxGeometry relative="1" as="geometry">
            <Array as="points">
              <mxPoint x="1450" y="575" />
            </Array>
          </mxGeometry>
        </mxCell>
        <mxCell id="0GCq4Y744uVw-E18_V-o-16" value="Yes" style="edgeLabel;html=1;align=center;verticalAlign=middle;resizable=0;points=[];" connectable="0" vertex="1" parent="0GCq4Y744uVw-E18_V-o-15">
          <mxGeometry x="-0.4448" y="1" relative="1" as="geometry">
            <mxPoint x="1" y="18" as="offset" />
          </mxGeometry>
        </mxCell>
        <mxCell id="0GCq4Y744uVw-E18_V-o-17" value="" style="edgeStyle=orthogonalEdgeStyle;rounded=0;orthogonalLoop=1;jettySize=auto;html=1;" edge="1" parent="1" source="0GCq4Y744uVw-E18_V-o-19" target="0GCq4Y744uVw-E18_V-o-14">
          <mxGeometry relative="1" as="geometry">
            <Array as="points">
              <mxPoint x="1450" y="865" />
            </Array>
          </mxGeometry>
        </mxCell>
        <mxCell id="0GCq4Y744uVw-E18_V-o-18" value="No" style="edgeLabel;html=1;align=center;verticalAlign=middle;resizable=0;points=[];" connectable="0" vertex="1" parent="0GCq4Y744uVw-E18_V-o-17">
          <mxGeometry x="-0.877" relative="1" as="geometry">
            <mxPoint y="-8" as="offset" />
          </mxGeometry>
        </mxCell>
        <mxCell id="0GCq4Y744uVw-E18_V-o-19" value="Can Capture?" style="rhombus;whiteSpace=wrap;html=1;" vertex="1" parent="1">
          <mxGeometry x="1400" y="750" width="100" height="70" as="geometry" />
        </mxCell>
        <mxCell id="0GCq4Y744uVw-E18_V-o-20" value="" style="edgeStyle=orthogonalEdgeStyle;rounded=0;orthogonalLoop=1;jettySize=auto;html=1;" edge="1" parent="1" source="0GCq4Y744uVw-E18_V-o-28" target="0GCq4Y744uVw-E18_V-o-26">
          <mxGeometry relative="1" as="geometry" />
        </mxCell>
        <mxCell id="0GCq4Y744uVw-E18_V-o-21" value="Capture" style="rounded=0;whiteSpace=wrap;html=1;" vertex="1" parent="1">
          <mxGeometry x="1240" y="630" width="60" height="30" as="geometry" />
        </mxCell>
        <mxCell id="0GCq4Y744uVw-E18_V-o-22" value="" style="edgeStyle=orthogonalEdgeStyle;rounded=0;orthogonalLoop=1;jettySize=auto;html=1;" edge="1" parent="1" source="0GCq4Y744uVw-E18_V-o-26" target="0GCq4Y744uVw-E18_V-o-14">
          <mxGeometry relative="1" as="geometry" />
        </mxCell>
        <mxCell id="0GCq4Y744uVw-E18_V-o-23" value="Yes" style="edgeLabel;html=1;align=center;verticalAlign=middle;resizable=0;points=[];" connectable="0" vertex="1" parent="0GCq4Y744uVw-E18_V-o-22">
          <mxGeometry x="0.0094" y="-2" relative="1" as="geometry">
            <mxPoint x="1" y="2" as="offset" />
          </mxGeometry>
        </mxCell>
        <mxCell id="0GCq4Y744uVw-E18_V-o-24" value="" style="edgeStyle=orthogonalEdgeStyle;rounded=0;orthogonalLoop=1;jettySize=auto;html=1;" edge="1" parent="1" source="0GCq4Y744uVw-E18_V-o-26" target="0GCq4Y744uVw-E18_V-o-19">
          <mxGeometry relative="1" as="geometry" />
        </mxCell>
        <mxCell id="0GCq4Y744uVw-E18_V-o-25" value="No" style="edgeLabel;html=1;align=center;verticalAlign=middle;resizable=0;points=[];" connectable="0" vertex="1" parent="0GCq4Y744uVw-E18_V-o-24">
          <mxGeometry x="-0.185" y="2" relative="1" as="geometry">
            <mxPoint y="2" as="offset" />
          </mxGeometry>
        </mxCell>
        <mxCell id="0GCq4Y744uVw-E18_V-o-26" value="Kinged?" style="rhombus;whiteSpace=wrap;html=1;" vertex="1" parent="1">
          <mxGeometry x="1220" y="760" width="100" height="50" as="geometry" />
        </mxCell>
        <mxCell id="0GCq4Y744uVw-E18_V-o-27" value="" style="edgeStyle=orthogonalEdgeStyle;rounded=0;orthogonalLoop=1;jettySize=auto;html=1;" edge="1" parent="1" source="0GCq4Y744uVw-E18_V-o-21" target="0GCq4Y744uVw-E18_V-o-28">
          <mxGeometry relative="1" as="geometry">
            <mxPoint x="1270" y="680" as="sourcePoint" />
            <mxPoint x="1270" y="760" as="targetPoint" />
          </mxGeometry>
        </mxCell>
        <mxCell id="0GCq4Y744uVw-E18_V-o-28" value="Get all viable Moves of the Moved Piece" style="rounded=0;whiteSpace=wrap;html=1;" vertex="1" parent="1">
          <mxGeometry x="1210" y="690" width="120" height="40" as="geometry" />
        </mxCell>
        <mxCell id="0GCq4Y744uVw-E18_V-o-29" value="Get Viable Moves (when the turn has just started)" style="swimlane;whiteSpace=wrap;html=1;" vertex="1" parent="1">
          <mxGeometry x="1040" y="980" width="480" height="480" as="geometry" />
        </mxCell>
        <mxCell id="0GCq4Y744uVw-E18_V-o-30" value="" style="edgeStyle=orthogonalEdgeStyle;rounded=0;orthogonalLoop=1;jettySize=auto;html=1;" edge="1" parent="0GCq4Y744uVw-E18_V-o-29" source="0GCq4Y744uVw-E18_V-o-32" target="0GCq4Y744uVw-E18_V-o-37">
          <mxGeometry relative="1" as="geometry" />
        </mxCell>
        <mxCell id="0GCq4Y744uVw-E18_V-o-31" value="Yes" style="edgeLabel;html=1;align=center;verticalAlign=middle;resizable=0;points=[];" connectable="0" vertex="1" parent="0GCq4Y744uVw-E18_V-o-30">
          <mxGeometry x="-0.2303" relative="1" as="geometry">
            <mxPoint as="offset" />
          </mxGeometry>
        </mxCell>
        <mxCell id="0GCq4Y744uVw-E18_V-o-32" value="Is Tile Valid?" style="rhombus;whiteSpace=wrap;html=1;" vertex="1" parent="0GCq4Y744uVw-E18_V-o-29">
          <mxGeometry x="180" y="50" width="120" height="60" as="geometry" />
        </mxCell>
        <mxCell id="0GCq4Y744uVw-E18_V-o-33" value="" style="edgeStyle=orthogonalEdgeStyle;rounded=0;orthogonalLoop=1;jettySize=auto;html=1;" edge="1" parent="0GCq4Y744uVw-E18_V-o-29" source="0GCq4Y744uVw-E18_V-o-37" target="0GCq4Y744uVw-E18_V-o-40">
          <mxGeometry relative="1" as="geometry">
            <Array as="points">
              <mxPoint x="120" y="180" />
            </Array>
          </mxGeometry>
        </mxCell>
        <mxCell id="0GCq4Y744uVw-E18_V-o-34" value="Yes" style="edgeLabel;html=1;align=center;verticalAlign=middle;resizable=0;points=[];" connectable="0" vertex="1" parent="0GCq4Y744uVw-E18_V-o-33">
          <mxGeometry x="-0.559" y="2" relative="1" as="geometry">
            <mxPoint x="3" y="-2" as="offset" />
          </mxGeometry>
        </mxCell>
        <mxCell id="0GCq4Y744uVw-E18_V-o-35" value="" style="edgeStyle=orthogonalEdgeStyle;rounded=0;orthogonalLoop=1;jettySize=auto;html=1;" edge="1" parent="0GCq4Y744uVw-E18_V-o-29" source="0GCq4Y744uVw-E18_V-o-37" target="0GCq4Y744uVw-E18_V-o-44">
          <mxGeometry relative="1" as="geometry" />
        </mxCell>
        <mxCell id="0GCq4Y744uVw-E18_V-o-36" value="No" style="edgeLabel;html=1;align=center;verticalAlign=middle;resizable=0;points=[];" connectable="0" vertex="1" parent="0GCq4Y744uVw-E18_V-o-35">
          <mxGeometry x="-0.6303" y="-1" relative="1" as="geometry">
            <mxPoint as="offset" />
          </mxGeometry>
        </mxCell>
        <mxCell id="0GCq4Y744uVw-E18_V-o-37" value="Is Tile Empty?" style="rhombus;whiteSpace=wrap;html=1;" vertex="1" parent="0GCq4Y744uVw-E18_V-o-29">
          <mxGeometry x="180" y="150" width="120" height="60" as="geometry" />
        </mxCell>
        <mxCell id="0GCq4Y744uVw-E18_V-o-38" value="" style="edgeStyle=orthogonalEdgeStyle;rounded=0;orthogonalLoop=1;jettySize=auto;html=1;" edge="1" parent="0GCq4Y744uVw-E18_V-o-29" source="0GCq4Y744uVw-E18_V-o-40" target="0GCq4Y744uVw-E18_V-o-41">
          <mxGeometry relative="1" as="geometry">
            <Array as="points">
              <mxPoint x="120" y="385" />
            </Array>
          </mxGeometry>
        </mxCell>
        <mxCell id="0GCq4Y744uVw-E18_V-o-39" value="No" style="edgeLabel;html=1;align=center;verticalAlign=middle;resizable=0;points=[];" connectable="0" vertex="1" parent="0GCq4Y744uVw-E18_V-o-38">
          <mxGeometry x="-0.0821" y="1" relative="1" as="geometry">
            <mxPoint x="-1" y="-28" as="offset" />
          </mxGeometry>
        </mxCell>
        <mxCell id="0GCq4Y744uVw-E18_V-o-40" value="&lt;div&gt;CanCapture?&lt;/div&gt;" style="rhombus;whiteSpace=wrap;html=1;" vertex="1" parent="0GCq4Y744uVw-E18_V-o-29">
          <mxGeometry x="70" y="250" width="100" height="60" as="geometry" />
        </mxCell>
        <mxCell id="0GCq4Y744uVw-E18_V-o-41" value="Add Move" style="rounded=0;whiteSpace=wrap;html=1;" vertex="1" parent="0GCq4Y744uVw-E18_V-o-29">
          <mxGeometry x="170" y="370" width="80" height="30" as="geometry" />
        </mxCell>
        <mxCell id="0GCq4Y744uVw-E18_V-o-42" value="" style="edgeStyle=orthogonalEdgeStyle;rounded=0;orthogonalLoop=1;jettySize=auto;html=1;" edge="1" parent="0GCq4Y744uVw-E18_V-o-29" source="0GCq4Y744uVw-E18_V-o-44" target="0GCq4Y744uVw-E18_V-o-46">
          <mxGeometry relative="1" as="geometry" />
        </mxCell>
        <mxCell id="0GCq4Y744uVw-E18_V-o-43" value="Yes" style="edgeLabel;html=1;align=center;verticalAlign=middle;resizable=0;points=[];" connectable="0" vertex="1" parent="0GCq4Y744uVw-E18_V-o-42">
          <mxGeometry x="-0.2095" y="-2" relative="1" as="geometry">
            <mxPoint x="2" as="offset" />
          </mxGeometry>
        </mxCell>
        <mxCell id="0GCq4Y744uVw-E18_V-o-44" value="Can Capture?" style="rhombus;whiteSpace=wrap;html=1;" vertex="1" parent="0GCq4Y744uVw-E18_V-o-29">
          <mxGeometry x="310" y="260" width="100" height="60" as="geometry" />
        </mxCell>
        <mxCell id="0GCq4Y744uVw-E18_V-o-45" value="" style="edgeStyle=orthogonalEdgeStyle;rounded=0;orthogonalLoop=1;jettySize=auto;html=1;" edge="1" parent="0GCq4Y744uVw-E18_V-o-29" source="0GCq4Y744uVw-E18_V-o-46" target="0GCq4Y744uVw-E18_V-o-41">
          <mxGeometry relative="1" as="geometry" />
        </mxCell>
        <mxCell id="0GCq4Y744uVw-E18_V-o-46" value="Enter Capturing Mode" style="rounded=0;whiteSpace=wrap;html=1;" vertex="1" parent="0GCq4Y744uVw-E18_V-o-29">
          <mxGeometry x="295" y="370" width="130" height="30" as="geometry" />
        </mxCell>
        <mxCell id="0GCq4Y744uVw-E18_V-o-47" value="Run this on all Pieces" style="text;html=1;align=center;verticalAlign=middle;whiteSpace=wrap;rounded=0;" vertex="1" parent="0GCq4Y744uVw-E18_V-o-29">
          <mxGeometry x="10" y="30" width="130" height="30" as="geometry" />
        </mxCell>
        <mxCell id="0GCq4Y744uVw-E18_V-o-48" value="Get Viable Moves (when the Piece has just moved)" style="swimlane;whiteSpace=wrap;html=1;" vertex="1" parent="1">
          <mxGeometry x="1040" y="1490" width="480" height="430" as="geometry" />
        </mxCell>
        <mxCell id="0GCq4Y744uVw-E18_V-o-49" value="" style="edgeStyle=orthogonalEdgeStyle;rounded=0;orthogonalLoop=1;jettySize=auto;html=1;" edge="1" parent="0GCq4Y744uVw-E18_V-o-48" source="0GCq4Y744uVw-E18_V-o-51" target="0GCq4Y744uVw-E18_V-o-54">
          <mxGeometry relative="1" as="geometry" />
        </mxCell>
        <mxCell id="0GCq4Y744uVw-E18_V-o-50" value="Yes" style="edgeLabel;html=1;align=center;verticalAlign=middle;resizable=0;points=[];" connectable="0" vertex="1" parent="0GCq4Y744uVw-E18_V-o-49">
          <mxGeometry x="-0.2303" relative="1" as="geometry">
            <mxPoint as="offset" />
          </mxGeometry>
        </mxCell>
        <mxCell id="0GCq4Y744uVw-E18_V-o-51" value="Is Tile Valid?" style="rhombus;whiteSpace=wrap;html=1;" vertex="1" parent="0GCq4Y744uVw-E18_V-o-48">
          <mxGeometry x="180" y="50" width="120" height="60" as="geometry" />
        </mxCell>
        <mxCell id="0GCq4Y744uVw-E18_V-o-52" value="" style="edgeStyle=orthogonalEdgeStyle;rounded=0;orthogonalLoop=1;jettySize=auto;html=1;" edge="1" parent="0GCq4Y744uVw-E18_V-o-48" source="0GCq4Y744uVw-E18_V-o-54" target="0GCq4Y744uVw-E18_V-o-58">
          <mxGeometry relative="1" as="geometry" />
        </mxCell>
        <mxCell id="0GCq4Y744uVw-E18_V-o-53" value="No" style="edgeLabel;html=1;align=center;verticalAlign=middle;resizable=0;points=[];" connectable="0" vertex="1" parent="0GCq4Y744uVw-E18_V-o-52">
          <mxGeometry x="-0.6303" y="-1" relative="1" as="geometry">
            <mxPoint x="1" y="13" as="offset" />
          </mxGeometry>
        </mxCell>
        <mxCell id="0GCq4Y744uVw-E18_V-o-54" value="Is Tile Empty?" style="rhombus;whiteSpace=wrap;html=1;" vertex="1" parent="0GCq4Y744uVw-E18_V-o-48">
          <mxGeometry x="180" y="150" width="120" height="60" as="geometry" />
        </mxCell>
        <mxCell id="0GCq4Y744uVw-E18_V-o-55" value="Add Move" style="rounded=0;whiteSpace=wrap;html=1;" vertex="1" parent="0GCq4Y744uVw-E18_V-o-48">
          <mxGeometry x="200" y="370" width="80" height="30" as="geometry" />
        </mxCell>
        <mxCell id="0GCq4Y744uVw-E18_V-o-56" value="" style="edgeStyle=orthogonalEdgeStyle;rounded=0;orthogonalLoop=1;jettySize=auto;html=1;" edge="1" parent="0GCq4Y744uVw-E18_V-o-48" source="0GCq4Y744uVw-E18_V-o-58" target="0GCq4Y744uVw-E18_V-o-55">
          <mxGeometry relative="1" as="geometry" />
        </mxCell>
        <mxCell id="0GCq4Y744uVw-E18_V-o-57" value="Yes" style="edgeLabel;html=1;align=center;verticalAlign=middle;resizable=0;points=[];" connectable="0" vertex="1" parent="0GCq4Y744uVw-E18_V-o-56">
          <mxGeometry x="-0.5406" y="-2" relative="1" as="geometry">
            <mxPoint x="2" y="9" as="offset" />
          </mxGeometry>
        </mxCell>
        <mxCell id="0GCq4Y744uVw-E18_V-o-58" value="Can Capture?" style="rhombus;whiteSpace=wrap;html=1;" vertex="1" parent="0GCq4Y744uVw-E18_V-o-48">
          <mxGeometry x="190" y="260" width="100" height="60" as="geometry" />
        </mxCell>
      </root>
    </mxGraphModel>
  </diagram>
</mxfile>
